<?xml version='1.0' encoding='UTF-8' standalone='no'?>
<!-- Created with Fritzing (http://www.fritzing.org/) -->
<svg xmlns="http://www.w3.org/2000/svg" width="2.725in" x="0in" version="1.2" y="0in"  height="2.1014in" viewBox="0 0 196.2 151.301" baseProfile="tiny" xmlns:svg="http://www.w3.org/2000/svg">
 <g transform="matrix(-1, 0, 0, 1, 196.2, 0)">
  <g partID="726481">
   <g id="silkscreen0">
    <path fill="none" stroke="black" stroke-linejoin="round" id="outline_1_" stroke-linecap="round" d="M186.951,36.41L186.951,4.367l-3.566,-3.566L0.805,0.8l0.001,149.701l186.147,0l0,-5.827l8.441,-8.441L195.394,43.545L186.951,36.41z" stroke-miterlimit="10"/>
   </g>
  </g>
  <g partID="726480">
   <g id="board">
    <path fill="none" stroke="black" fill-opacity="0.5" id="boardoutline" stroke-width="0.5" d="M186.951,36.41L186.951,4.367l-3.566,-3.566L0.805,0.8l0.001,149.701l186.147,0l0,-5.827l8.441,-8.441L195.394,43.545L186.951,36.41z"/>
   </g>
  </g>
  <g partID="726481">
   <g id="silkscreen0">
    <path fill="none" stroke="black" stroke-linejoin="round" id="outline_1_" stroke-linecap="round" d="M186.951,36.41L186.951,4.367l-3.566,-3.566L0.805,0.8l0.001,149.701l186.147,0l0,-5.827l8.441,-8.441L195.394,43.545L186.951,36.41z" stroke-miterlimit="10"/>
   </g>
  </g>
  <g partID="742481">
   <g transform="translate(86.6682,112.183)">
    <g transform="matrix(-1,0,0,-1,0,0)">
     <g flipped="1" id="silkscreen0">
      <g transform="matrix(-1, 0, 0, 1, 34.56, 0)">
       <g>
        <g>
         <g>
          <line stroke="black" id="vertical-left" y1="1.44" stroke-width="0.72" x1="1.44" y2="30.5065" x2="1.44"/>
          <line stroke="black" id="bottom" y1="30.5065" stroke-width="0.72" x1="1.44" y2="30.5065" x2="33.12"/>
          <line stroke="black" id="vertical-right" y1="30.5065" stroke-width="0.72" x1="33.12" y2="1.44" x2="33.12"/>
          <line stroke="black" id="top" y1="1.44" stroke-width="0.72" x1="33.12" y2="1.44" x2="1.44"/>
          <line stroke="black" id="mid-vertical" y1="30.5065" stroke-width="0.36" x1="27.36" y2="1.44" x2="27.36"/>
         </g>
        </g>
       </g>
      </g>
     </g>
    </g>
   </g>
  </g>
  <g id="partLabel" partID="742480">
   <g transform="translate(52.1082,75.3562)">
    <g transform="matrix(-1,0,0,1,0,0)">
     <g fill="#000000" font-family="'OCRA'" stroke="none" font-style="normal" fill-opacity="1" font-weight="normal" id="silkscreen0Label" font-size="5">
      <text x="0" y="3.75">J1</text>
     </g>
    </g>
   </g>
  </g>
  <g partID="719900">
   <g transform="translate(144.145,49.4436)">
    <g transform="matrix(0,1,-1,0,0,0)">
     <g transform="matrix(1, 0, 0, 1, 14.7818, 14.5894)">
      <g id="copper0">
       <g gorn="0.4.0.0.0.0">
        <g transform="matrix(1, 0, 0, 1, -10.0514, 5.7123)">
         <g>
          <g>
           <g>
            <g>
             <circle fill="white" cx="3.888" gorn="0.4.0.0.0.0.0.0.0.0.0" cy="18.288" stroke="white" r="1.8" id="connector2pad" stroke-width="1.44"/>
            </g>
           </g>
          </g>
         </g>
        </g>
        <g transform="matrix(1, 0, 0, 1, 2.93492, 5.65685)">
         <g>
          <g>
           <g>
            <g>
             <circle fill="white" cx="25.488" gorn="0.4.0.0.0.0.1.0.0.0.0" cy="18.288" stroke="white" r="1.8" id="connector4pad" stroke-width="1.44"/>
            </g>
           </g>
          </g>
         </g>
        </g>
        <g transform="matrix(1, 0, 0, 1, 1.43801, -12.3544)">
         <g>
          <g>
           <g>
            <g>
             <circle fill="white" cx="32.688" gorn="0.4.0.0.0.0.2.0.0.0.0" cy="18.288" stroke="white" r="1.8" id="connector0pad" stroke-width="1.44"/>
            </g>
           </g>
          </g>
         </g>
        </g>
        <g transform="matrix(1, 0, 0, 1, -10.0514, -13.9)">
         <g>
          <g>
           <g>
            <g>
             <circle fill="white" cx="3.888" gorn="0.4.0.0.0.0.3.0.0.0.0" cy="3.888" stroke="white" r="1.8" id="connector3pad" stroke-width="1.44"/>
            </g>
           </g>
          </g>
         </g>
        </g>
        <g transform="matrix(1, 0, 0, 1, 2.93492, -13.9)">
         <g>
          <g>
           <g>
            <g>
             <circle fill="white" cx="25.488" gorn="0.4.0.0.0.0.4.0.0.0.0" cy="3.888" stroke="white" r="1.8" id="connector1pad" stroke-width="1.44"/>
            </g>
           </g>
          </g>
         </g>
        </g>
       </g>
      </g>
     </g>
    </g>
   </g>
  </g>
  <g partID="740920">
   <g transform="translate(86.1294,58.0135)">
    <g transform="matrix(-1,0,0,-1,0,0)">
     <g id="copper0">
      <rect width="4.27465" x="12.2627" y="6.74929" fill="white" height="4.27465" stroke="white" id="square" stroke-width="2.16"/>
      <circle fill="white" cx="14.4" cy="8.8866" stroke="white" id="connector0pin" r="2.13732" stroke-width="2.16"/>
      <circle fill="white" cx="14.4" cy="23.0599" stroke="white" id="connector1pin" r="2.13732" stroke-width="2.16"/>
     </g>
    </g>
   </g>
  </g>
  <g partID="742480">
   <g transform="translate(86.6682,112.183)">
    <g transform="matrix(-1,0,0,-1,0,0)">
     <g flipped="1" id="copper0">
      <g transform="matrix(-1, 0, 0, 1, 34.56, 0)">
       <g>
        <g>
         <g>
          <g id="copper0">
           <rect width="3.42425" x="12.6879" y="7.17449" fill="white" height="3.42425" stroke="white" id="square" stroke-width="2.16"/>
           <circle fill="white" cx="14.4" cy="8.8866" stroke="white" id="connector0pin" r="1.71213" stroke-width="2.16"/>
           <circle fill="white" cx="14.4" cy="23.0599" stroke="white" id="connector1pin" r="1.71213" stroke-width="2.16"/>
          </g>
         </g>
         <g>
          <rect width="3.42425" x="12.6879" y="7.17449" fill="white" height="3.42425" stroke="white" id="square" stroke-width="2.16"/>
          <circle fill="white" cx="14.4" cy="8.8866" stroke="white" id="connector0pin" r="1.71213" stroke-width="2.16"/>
          <circle fill="white" cx="14.4" cy="23.0599" stroke="white" id="connector1pin" r="1.71213" stroke-width="2.16"/>
         </g>
        </g>
       </g>
      </g>
     </g>
    </g>
   </g>
  </g>
  <g partID="720330">
   <g transform="translate(158.503,92.5584)">
    <g transform="matrix(0,-1,1,0,0,0)">
     <g id="copper0">
      <rect width="3.96" x="16.02" y="6.228" fill="white" height="3.96" stroke="white" id="rect10" stroke-width="2.16"/>
      <circle fill="white" cx="3.6" cy="8.208" stroke="white" id="connector0pin" r="1.98" stroke-width="2.16"/>
      <circle fill="white" cx="10.8" cy="8.208" stroke="white" id="connector1pin" r="1.98" stroke-width="2.16"/>
      <circle fill="white" cx="18" cy="8.208" stroke="white" id="connector2pin" r="1.98" stroke-width="2.16"/>
     </g>
    </g>
   </g>
  </g>
  <g partID="720530">
   <g transform="translate(163.765,57.0304)">
    <g transform="matrix(0,-1,1,0,0,0)">
     <g id="copper0">
      <g id="copper1">
       <!-- <rect width="55" x="10" y="15.5" fill="none" height="55" stroke="rgb(255, 191, 0)" stroke-width="20" />  -->
       <circle fill="white" cx="2.7" cy="3.096" stroke="white" r="1.98" id="connector0pin" stroke-width="2.16"/>
       <circle fill="white" cx="31.5" cy="3.096" stroke="white" r="1.98" id="connector1pin" stroke-width="2.16"/>
      </g>
     </g>
    </g>
   </g>
  </g>
  <g partID="737980">
   <g transform="translate(1.0112,0.8)">
    <g id="copper0">
     <circle fill="white" cx="151.384" cy="144" stroke="white" id="connector1pad" r="1.883" stroke-width="1.72"/>
     <circle fill="white" cx="158.583" cy="144" stroke="white" id="connector2pad" r="1.883" stroke-width="1.72"/>
     <circle fill="white" cx="165.786" cy="144" stroke="white" id="connector3pad" r="1.883" stroke-width="1.72"/>
     <circle fill="white" cx="172.985" cy="144" stroke="white" id="connector4pad" r="1.883" stroke-width="1.72"/>
     <circle fill="white" cx="180.185" cy="144" stroke="white" id="connector5pad" r="1.883" stroke-width="1.72"/>
     <circle fill="white" cx="118.263" cy="7.2" stroke="white" id="connector51pad" r="1.884" stroke-width="1.72"/>
     <circle fill="white" cx="111.065" cy="7.2" stroke="white" id="connector52pad" r="1.884" stroke-width="1.72"/>
     <circle fill="white" cx="103.864" cy="7.2" stroke="white" id="connector53pad" r="1.884" stroke-width="1.72"/>
     <circle fill="white" cx="96.664" cy="7.2" stroke="white" id="connector54pad" r="1.884" stroke-width="1.72"/>
     <circle fill="white" cx="89.464" cy="7.2" stroke="white" id="connector55pad" r="1.884" stroke-width="1.72"/>
     <circle fill="white" cx="82.264" cy="7.2" stroke="white" id="connector56pad" r="1.884" stroke-width="1.72"/>
     <circle fill="white" cx="75.064" cy="7.2" stroke="white" id="connector57pad" r="1.884" stroke-width="1.72"/>
     <circle fill="white" cx="67.864" cy="7.2" stroke="white" id="connector58pad" r="1.884" stroke-width="1.72"/>
     <circle fill="white" cx="60.664" cy="7.2" stroke="white" id="connector59pad" r="1.884" stroke-width="1.72"/>
     <circle fill="white" cx="53.463" cy="7.2" stroke="white" id="connector60pad" r="1.884" stroke-width="1.72"/>
     <circle fill="white" cx="180.185" cy="7.2" stroke="white" id="connector61pad" r="1.884" stroke-width="1.72"/>
     <circle fill="white" cx="172.985" cy="7.2" stroke="white" id="connector62pad" r="1.884" stroke-width="1.72"/>
     <circle fill="white" cx="165.786" cy="7.2" stroke="white" id="connector63pad" r="1.884" stroke-width="1.72"/>
     <circle fill="white" cx="158.583" cy="7.2" stroke="white" id="connector64pad" r="1.884" stroke-width="1.72"/>
     <circle fill="white" cx="151.384" cy="7.2" stroke="white" id="connector65pad" r="1.884" stroke-width="1.72"/>
     <circle fill="white" cx="144.185" cy="7.2" stroke="white" id="connector66pad" r="1.884" stroke-width="1.72"/>
     <circle fill="white" cx="136.985" cy="7.2" stroke="white" id="connector67pad" r="1.884" stroke-width="1.72"/>
     <circle fill="white" cx="129.784" cy="7.2" stroke="white" id="connector68pad" r="1.884" stroke-width="1.72"/>
     <circle fill="white" cx="86.584" cy="144" stroke="white" id="connector84pad" r="1.883" stroke-width="1.72"/>
     <circle fill="white" cx="79.384" cy="144" stroke="white" id="connector91pin" r="1.883" stroke-width="1.72"/>
     <circle fill="white" cx="93.784" cy="144" stroke="white" id="connector85pad" r="1.883" stroke-width="1.72"/>
     <circle fill="white" cx="100.985" cy="144" stroke="white" id="connector86pad" r="1.883" stroke-width="1.72"/>
     <circle fill="white" cx="108.185" cy="144" stroke="white" id="connector87pad" r="1.883" stroke-width="1.72"/>
     <circle fill="white" cx="115.384" cy="144" stroke="white" id="connector88pad" r="1.883" stroke-width="1.72"/>
     <circle fill="white" cx="122.583" cy="144" stroke="white" id="connector89pad" r="1.883" stroke-width="1.72"/>
     <circle fill="white" cx="129.784" cy="144" stroke="white" id="connector90pad" r="1.883" stroke-width="1.72"/>
     <circle fill="white" cx="144.185" cy="144" stroke="white" id="connector0pad" r="1.883" stroke-width="1.72"/>
    </g>
   </g>
  </g>
  <g partID="734140">
   <g transform="translate(106.542,114.318)">
    <g id="copper0">
     <circle fill="white" cx="2.808" cy="3.96" connectorname="A" stroke="white" id="connector0pad" r="2.11266" stroke-width="2.11068"/>
     <circle fill="white" cx="31.608" cy="3.96" connectorname="C" stroke="white" id="connector1pad" r="2.11266" stroke-width="2.11068"/>
    </g>
   </g>
  </g>
 </g>
</svg>
