<?xml version='1.0' encoding='UTF-8' standalone='no'?>
<!-- Created with Fritzing (http://www.fritzing.org/) -->
<svg xmlns="http://www.w3.org/2000/svg" width="2.725in" x="0in" version="1.2" y="0in"  height="2.1014in" viewBox="0 0 196.2 151.301" baseProfile="tiny" xmlns:svg="http://www.w3.org/2000/svg">
 <g transform="matrix(-1, 0, 0, 1, 196.2, 0)">
  <g partID="726480">
   <g  id="board">
    <path fill="none"  stroke="black" fill-opacity="0.5" id="boardoutline" stroke-width="0.5" d="M186.951,36.41L186.951,4.367l-3.566,-3.566L0.805,0.8l0.001,149.701l186.147,0l0,-5.827l8.441,-8.441L195.394,43.545L186.951,36.41z"/>
   </g>
  </g>
  <g partID="719900">
   <g transform="translate(144.145,49.4436)">
    <g transform="matrix(0,1,-1,0,0,0)">
     <g transform="matrix(1, 0, 0, 1, 14.7818, 14.5894)">
      <g id="copper0">
       <g gorn="0.4.0.0.0.0">
        <g transform="matrix(1, 0, 0, 1, -10.0514, 5.7123)">
         <g>
          <g>
           <g>
            <g>
             <circle fill="none" cx="3.888" gorn="0.4.0.0.0.0.0.0.0.0.0" cy="18.288" stroke="black" r="1.8" id="connector2pad" stroke-width="0.72"/>
            </g>
           </g>
          </g>
         </g>
        </g>
        <g transform="matrix(1, 0, 0, 1, 2.93492, 5.65685)">
         <g>
          <g>
           <g>
            <g>
             <circle fill="none" cx="25.488" gorn="0.4.0.0.0.0.1.0.0.0.0" cy="18.288" stroke="black" r="1.8" id="connector4pad" stroke-width="0.72"/>
            </g>
           </g>
          </g>
         </g>
        </g>
        <g transform="matrix(1, 0, 0, 1, 1.43801, -12.3544)">
         <g>
          <g>
           <g>
            <g>
             <circle fill="none" cx="32.688" gorn="0.4.0.0.0.0.2.0.0.0.0" cy="18.288" stroke="black" r="1.8" id="connector0pad" stroke-width="0.72"/>
            </g>
           </g>
          </g>
         </g>
        </g>
        <g transform="matrix(1, 0, 0, 1, -10.0514, -13.9)">
         <g>
          <g>
           <g>
            <g>
             <circle fill="none" cx="3.888" gorn="0.4.0.0.0.0.3.0.0.0.0" cy="3.888" stroke="black" r="1.8" id="connector3pad" stroke-width="0.72"/>
            </g>
           </g>
          </g>
         </g>
        </g>
        <g transform="matrix(1, 0, 0, 1, 2.93492, -13.9)">
         <g>
          <g>
           <g>
            <g>
             <circle fill="none" cx="25.488" gorn="0.4.0.0.0.0.4.0.0.0.0" cy="3.888" stroke="black" r="1.8" id="connector1pad" stroke-width="0.72"/>
            </g>
           </g>
          </g>
         </g>
        </g>
       </g>
      </g>
     </g>
    </g>
   </g>
  </g>
  <g partID="742480">
   <g transform="translate(86.6682,112.183)">
    <g transform="matrix(-1,0,0,-1,0,0)">
     <g flipped="1" id="copper0">
      <g transform="matrix(-1, 0, 0, 1, 34.56, 0)">
       <g>
        <g>
         <g>
          <g id="copper0">
           <rect width="3.42425" x="12.6879" y="7.17449" fill="none" height="3.42425" stroke="black" id="square" stroke-width="1.44"/>
           <circle fill="none" cx="14.4" cy="8.8866" stroke="black" id="connector0pin" r="1.71213" stroke-width="1.44"/>
           <circle fill="none" cx="14.4" cy="23.0599" stroke="black" id="connector1pin" r="1.71213" stroke-width="1.44"/>
          </g>
         </g>
         <g>
          <rect width="3.42425" x="12.6879" y="7.17449" fill="none" height="3.42425" stroke="black" id="square" stroke-width="1.44"/>
          <circle fill="none" cx="14.4" cy="8.8866" stroke="black" id="connector0pin" r="1.71213" stroke-width="1.44"/>
          <circle fill="none" cx="14.4" cy="23.0599" stroke="black" id="connector1pin" r="1.71213" stroke-width="1.44"/>
         </g>
        </g>
       </g>
      </g>
     </g>
    </g>
   </g>
  </g>
  <g partID="740920">
   <g transform="translate(86.1294,58.0135)">
    <g transform="matrix(-1,0,0,-1,0,0)">
     <g  id="copper0">
      <rect width="4.27465" x="12.2627" y="6.74929" fill="none"  height="4.27465" stroke="black" id="square" stroke-width="1.44"/>
      <circle fill="none" cx="14.4"  cy="8.8866" stroke="black" id="connector0pin" r="2.13732" stroke-width="1.44"/>
      <circle fill="none" cx="14.4"  cy="23.0599" stroke="black" id="connector1pin" r="2.13732" stroke-width="1.44"/>
     </g>
    </g>
   </g>
  </g>
  <g partID="720330">
   <g transform="translate(158.503,92.5584)">
    <g transform="matrix(0,-1,1,0,0,0)">
     <g  id="copper0">
      <rect width="3.96" x="16.02" y="6.228" fill="none"  height="3.96" stroke="black" id="rect10" stroke-width="1.44"/>
      <circle fill="none" cx="3.6"  cy="8.208" stroke="black" id="connector0pin" r="1.98" stroke-width="1.44"/>
      <circle fill="none" cx="10.8"  cy="8.208" stroke="black" id="connector1pin" r="1.98" stroke-width="1.44"/>
      <circle fill="none" cx="18"  cy="8.208" stroke="black" id="connector2pin" r="1.98" stroke-width="1.44"/>
     </g>
    </g>
   </g>
  </g>
  <g partID="720530">
   <g transform="translate(163.765,57.0304)">
    <g transform="matrix(0,-1,1,0,0,0)">
     <g  id="copper0">
      <g  id="copper1">
       <!-- <rect width="55" x="10" y="15.5" fill="none" height="55" stroke="rgb(255, 191, 0)" stroke-width="20" />  -->
       <circle fill="none" cx="2.7"  cy="3.096" stroke="black" r="1.98" id="connector0pin" stroke-width="1.44"/>
       <circle fill="none" cx="31.5"  cy="3.096" stroke="black" r="1.98" id="connector1pin" stroke-width="1.44"/>
      </g>
     </g>
    </g>
   </g>
  </g>
  <g partID="737980">
   <g transform="translate(1.0112,0.8)">
    <g  id="copper0">
     <circle fill="none" cx="151.384"  cy="144" stroke="black" id="connector1pad" r="1.883" stroke-width="1"/>
     <circle fill="none" cx="158.583"  cy="144" stroke="black" id="connector2pad" r="1.883" stroke-width="1"/>
     <circle fill="none" cx="165.786"  cy="144" stroke="black" id="connector3pad" r="1.883" stroke-width="1"/>
     <circle fill="none" cx="172.985"  cy="144" stroke="black" id="connector4pad" r="1.883" stroke-width="1"/>
     <circle fill="none" cx="180.185"  cy="144" stroke="black" id="connector5pad" r="1.883" stroke-width="1"/>
     <circle fill="none" cx="118.263"  cy="7.2" stroke="black" id="connector51pad" r="1.884" stroke-width="1"/>
     <circle fill="none" cx="111.065"  cy="7.2" stroke="black" id="connector52pad" r="1.884" stroke-width="1"/>
     <circle fill="none" cx="103.864"  cy="7.2" stroke="black" id="connector53pad" r="1.884" stroke-width="1"/>
     <circle fill="none" cx="96.664"  cy="7.2" stroke="black" id="connector54pad" r="1.884" stroke-width="1"/>
     <circle fill="none" cx="89.464"  cy="7.2" stroke="black" id="connector55pad" r="1.884" stroke-width="1"/>
     <circle fill="none" cx="82.264"  cy="7.2" stroke="black" id="connector56pad" r="1.884" stroke-width="1"/>
     <circle fill="none" cx="75.064"  cy="7.2" stroke="black" id="connector57pad" r="1.884" stroke-width="1"/>
     <circle fill="none" cx="67.864"  cy="7.2" stroke="black" id="connector58pad" r="1.884" stroke-width="1"/>
     <circle fill="none" cx="60.664"  cy="7.2" stroke="black" id="connector59pad" r="1.884" stroke-width="1"/>
     <circle fill="none" cx="53.463"  cy="7.2" stroke="black" id="connector60pad" r="1.884" stroke-width="1"/>
     <circle fill="none" cx="180.185"  cy="7.2" stroke="black" id="connector61pad" r="1.884" stroke-width="1"/>
     <circle fill="none" cx="172.985"  cy="7.2" stroke="black" id="connector62pad" r="1.884" stroke-width="1"/>
     <circle fill="none" cx="165.786"  cy="7.2" stroke="black" id="connector63pad" r="1.884" stroke-width="1"/>
     <circle fill="none" cx="158.583"  cy="7.2" stroke="black" id="connector64pad" r="1.884" stroke-width="1"/>
     <circle fill="none" cx="151.384"  cy="7.2" stroke="black" id="connector65pad" r="1.884" stroke-width="1"/>
     <circle fill="none" cx="144.185"  cy="7.2" stroke="black" id="connector66pad" r="1.884" stroke-width="1"/>
     <circle fill="none" cx="136.985"  cy="7.2" stroke="black" id="connector67pad" r="1.884" stroke-width="1"/>
     <circle fill="none" cx="129.784"  cy="7.2" stroke="black" id="connector68pad" r="1.884" stroke-width="1"/>
     <circle fill="none" cx="86.584"  cy="144" stroke="black" id="connector84pad" r="1.883" stroke-width="1"/>
     <circle fill="none" cx="79.384"  cy="144" stroke="black" id="connector91pin" r="1.883" stroke-width="1"/>
     <circle fill="none" cx="93.784"  cy="144" stroke="black" id="connector85pad" r="1.883" stroke-width="1"/>
     <circle fill="none" cx="100.985"  cy="144" stroke="black" id="connector86pad" r="1.883" stroke-width="1"/>
     <circle fill="none" cx="108.185"  cy="144" stroke="black" id="connector87pad" r="1.883" stroke-width="1"/>
     <circle fill="none" cx="115.384"  cy="144" stroke="black" id="connector88pad" r="1.883" stroke-width="1"/>
     <circle fill="none" cx="122.583"  cy="144" stroke="black" id="connector89pad" r="1.883" stroke-width="1"/>
     <circle fill="none" cx="129.784"  cy="144" stroke="black" id="connector90pad" r="1.883" stroke-width="1"/>
     <circle fill="none" cx="144.185"  cy="144" stroke="black" id="connector0pad" r="1.883" stroke-width="1"/>
    </g>
   </g>
  </g>
  <g partID="734140">
   <g transform="translate(106.542,114.318)">
    <g  id="copper0">
     <circle fill="none" cx="2.808"  cy="3.96" connectorname="A" stroke="black" id="connector0pad" r="2.11266" stroke-width="1.39068"/>
     <circle fill="none" cx="31.608"  cy="3.96" connectorname="C" stroke="black" id="connector1pad" r="2.11266" stroke-width="1.39068"/>
    </g>
   </g>
  </g>
  <g partID="738250">
   <g transform="translate(13.3281,117.73)">
    <g transform="matrix(-1, 0, 0, 1, 50.4, 0)">
     <g _flipped_="1" id="copper0">
      <text x="25.2" y="6.48" fill="black" font-family="OCRA" text-anchor="middle" xmlns:xml="http://www.w3.org/XML/1998/namespace" id="label" xml:space="preserve" stroke-width="0" font-size="7.2">Club de</text>
     </g>
    </g>
   </g>
  </g>
  <g partID="737960">
   <g transform="translate(0.818558,138.517)">
    <g transform="matrix(-1, 0, 0, 1, 72, 0)">
     <g _flipped_="1" id="copper0">
      <text x="36" y="6.48" fill="black" font-family="OCRA" text-anchor="middle" xmlns:xml="http://www.w3.org/XML/1998/namespace" id="label" xml:space="preserve" stroke-width="0" font-size="7.2">Plataforma</text>
     </g>
    </g>
   </g>
  </g>
  <g partID="741460">
   <g transform="translate(-1.99208,127.629)">
    <g transform="matrix(-1, 0, 0, 1, 79.2, 0)">
     <g _flipped_="1" id="copper0">
      <text x="39.6" y="6.48" fill="black" font-family="OCRA" text-anchor="middle" xmlns:xml="http://www.w3.org/XML/1998/namespace" id="label" xml:space="preserve" stroke-width="0" font-size="7.2">Electronica</text>
     </g>
    </g>
   </g>
  </g>
  <g partID="736880">
   <line stroke="black" stroke-linecap="round" y1="143.017" x1="109.207" y2="120.096" stroke-width="3.456" x2="109.34"/>
  </g>
  <g partID="736940">
   <line stroke="black" stroke-linecap="round" y1="108.305" x1="105.219" y2="94.4877" stroke-width="3.456" x2="105.565"/>
  </g>
  <g partID="736920">
   <line stroke="black" stroke-linecap="round" y1="116.599" x1="108.655" y2="108.305" stroke-width="3.456" x2="105.219"/>
  </g>
  <g partID="736990">
   <line stroke="black" stroke-linecap="round" y1="107.391" x1="139.962" y2="116.486" stroke-width="3.456" x2="138.449"/>
  </g>
  <g partID="736970">
   <line stroke="black" stroke-linecap="round" y1="94.4876" x1="139.617" y2="107.391" stroke-width="3.456" x2="139.962"/>
  </g>
  <g partID="737040">
   <line stroke="black" stroke-linecap="round" y1="77.8687" x1="72.4238" y2="86.8283" stroke-width="3.456" x2="67.7143"/>
  </g>
  <g partID="742030">
   <line stroke="black" stroke-linecap="round" y1="65.496" x1="105.693" y2="70.4451" stroke-width="3.456" x2="99.0938"/>
  </g>
  <g partID="741980">
   <line stroke="black" stroke-linecap="round" y1="70.4451" x1="99.0938" y2="70.4451" stroke-width="3.456" x2="78.1977"/>
  </g>
  <g partID="741940">
   <line stroke="black" stroke-linecap="round" y1="70.4451" x1="78.1977" y2="77.8687" stroke-width="3.456" x2="72.4238"/>
  </g>
  <g partID="737020">
   <line stroke="black" stroke-linecap="round" y1="61.1014" x1="105.612" y2="65.496" stroke-width="3.456" x2="105.693"/>
  </g>
  <g partID="742210">
   <line stroke="black" stroke-linecap="round" y1="103.164" x1="83.9716" y2="103.276" stroke-width="3.456" x2="69.1003"/>
  </g>
  <g partID="742140">
   <line stroke="black" stroke-linecap="round" y1="85.5672" x1="89.4706" y2="97.665" stroke-width="3.456" x2="89.1956"/>
  </g>
  <g partID="737090">
   <line stroke="black" stroke-linecap="round" y1="80.5717" x1="111.314" y2="80.6182" stroke-width="3.456" x2="94.9696"/>
  </g>
  <g partID="742280">
   <line stroke="black" stroke-linecap="round" y1="80.6182" x1="94.9696" y2="85.5672" stroke-width="3.456" x2="89.4706"/>
  </g>
  <g partID="742340">
   <line stroke="black" stroke-linecap="round" y1="97.665" x1="89.1956" y2="103.164" stroke-width="3.456" x2="83.9716"/>
  </g>
  <g partID="737070">
   <line stroke="black" stroke-linecap="round" y1="95.313" x1="123.521" y2="88.3167" stroke-width="3.456" x2="123.289"/>
  </g>
  <g partID="742070">
   <line stroke="black" stroke-linecap="round" y1="88.3167" x1="123.289" y2="80.5717" stroke-width="3.456" x2="111.314"/>
  </g>
  <g partID="737560">
   <line stroke="black" stroke-linecap="round" y1="9.78399" x1="166.804" y2="23.8704" stroke-width="3.456" x2="166.855"/>
  </g>
  <g partID="740650">
   <line stroke="black" stroke-linecap="round" y1="121.311" x1="182.403" y2="130.934" stroke-width="3.456" x2="172.505"/>
  </g>
  <g partID="740560">
   <line stroke="black" stroke-linecap="round" y1="130.934" x1="172.505" y2="131.484" stroke-width="3.456" x2="130.163"/>
  </g>
  <g partID="740470">
   <line stroke="black" stroke-linecap="round" y1="136.983" x1="123.289" y2="141.819" stroke-width="3.456" x2="123.478"/>
  </g>
  <g partID="740520">
   <line stroke="black" stroke-linecap="round" y1="131.484" x1="130.163" y2="136.983" stroke-width="3.456" x2="123.289"/>
  </g>
  <g partID="740330">
   <line stroke="black" stroke-linecap="round" y1="79.5184" x1="183.228" y2="121.311" stroke-width="3.456" x2="182.403"/>
  </g>
  <g partID="740340">
   <line stroke="black" stroke-linecap="round" y1="74.6431" x1="169.57" y2="74.8442" stroke-width="3.456" x2="176.354"/>
  </g>
  <g partID="740610">
   <line stroke="black" stroke-linecap="round" y1="74.8442" x1="176.354" y2="79.5184" stroke-width="3.456" x2="183.228"/>
  </g>
  <g partID="740870">
   <line stroke="black" stroke-linecap="round" y1="58.6223" x1="151.059" y2="55.08" stroke-width="3.456" x2="164.101"/>
  </g>
  <g partID="740410">
   <line stroke="black" stroke-linecap="round" y1="76.4939" x1="151.059" y2="58.6223" stroke-width="3.456" x2="151.059"/>
  </g>
  <g partID="740820">
   <line stroke="black" stroke-linecap="round" y1="82.2678" x1="156.833" y2="76.4939" stroke-width="3.456" x2="151.059"/>
  </g>
  <g partID="740420">
   <line stroke="black" stroke-linecap="round" y1="81.9057" x1="163.855" y2="82.2678" stroke-width="3.456" x2="156.833"/>
  </g>
  <g partID="740750">
   <line stroke="black" stroke-linecap="round" y1="93.2658" x1="158.758" y2="90.3204" stroke-width="3.456" x2="164.196"/>
  </g>
  <g partID="740690">
   <line stroke="black" stroke-linecap="round" y1="92.746" x1="142.606" y2="93.2658" stroke-width="3.456" x2="158.758"/>
  </g>
  <g partID="741500">
   <line stroke="black" stroke-linecap="round" y1="34.9548" x1="74.7467" y2="34.9767" stroke-width="3.456" x2="129.338"/>
  </g>
  <g partID="741540">
   <line stroke="black" stroke-linecap="round" y1="34.9767" x1="129.338" y2="55.2826" stroke-width="3.456" x2="138.336"/>
  </g>
  <g partID="741810">
   <line stroke="black" stroke-linecap="round" y1="55.0479" x1="57.0266" y2="49.274" stroke-width="3.456" x2="63.0755"/>
  </g>
  <g partID="741880">
   <line stroke="black" stroke-linecap="round" y1="49.274" x1="63.0755" y2="49.1782" stroke-width="3.456" x2="68.7125"/>
  </g>
  <g partID="741740">
   <line stroke="black" stroke-linecap="round" y1="98.2149" x1="56.4767" y2="55.0479" stroke-width="3.456" x2="57.0266"/>
  </g>
  <g partID="741670">
   <line stroke="black" stroke-linecap="round" y1="103.164" x1="61.7008" y2="98.2149" stroke-width="3.456" x2="56.4767"/>
  </g>
  <g partID="741610">
   <line stroke="black" stroke-linecap="round" y1="103.225" x1="63.9171" y2="103.164" stroke-width="3.456" x2="61.7008"/>
  </g>
 </g>
</svg>
