<?xml version='1.0' encoding='UTF-8' standalone='no'?>
<!-- Created with Fritzing (http://www.fritzing.org/) -->
<svg xmlns="http://www.w3.org/2000/svg" width="2.725in" x="0in" version="1.2" y="0in"  height="2.1014in" viewBox="0 0 196.2 151.301" baseProfile="tiny" xmlns:svg="http://www.w3.org/2000/svg">
 <g partID="726480">
  <g  id="board">
   <path fill="none"  stroke="black" fill-opacity="0.5" id="boardoutline" stroke-width="0.5" d="M186.951,36.41L186.951,4.367l-3.566,-3.566L0.805,0.8l0.001,149.701l186.147,0l0,-5.827l8.441,-8.441L195.394,43.545L186.951,36.41z"/>
  </g>
 </g>
 <g partID="737981">
  <g transform="translate(1.0112,0.8)">
   <g  id="copper1">
    <g  id="copper0">
     <circle fill="black" cx="151.384"  cy="144" stroke="black" id="connector1pad" r="1.883" stroke-width="1.72"/>
     <circle fill="black" cx="158.583"  cy="144" stroke="black" id="connector2pad" r="1.883" stroke-width="1.72"/>
     <circle fill="black" cx="165.786"  cy="144" stroke="black" id="connector3pad" r="1.883" stroke-width="1.72"/>
     <circle fill="black" cx="172.985"  cy="144" stroke="black" id="connector4pad" r="1.883" stroke-width="1.72"/>
     <circle fill="black" cx="180.185"  cy="144" stroke="black" id="connector5pad" r="1.883" stroke-width="1.72"/>
     <circle fill="black" cx="118.263"  cy="7.2" stroke="black" id="connector51pad" r="1.884" stroke-width="1.72"/>
     <circle fill="black" cx="111.065"  cy="7.2" stroke="black" id="connector52pad" r="1.884" stroke-width="1.72"/>
     <circle fill="black" cx="103.864"  cy="7.2" stroke="black" id="connector53pad" r="1.884" stroke-width="1.72"/>
     <circle fill="black" cx="96.664"  cy="7.2" stroke="black" id="connector54pad" r="1.884" stroke-width="1.72"/>
     <circle fill="black" cx="89.464"  cy="7.2" stroke="black" id="connector55pad" r="1.884" stroke-width="1.72"/>
     <circle fill="black" cx="82.264"  cy="7.2" stroke="black" id="connector56pad" r="1.884" stroke-width="1.72"/>
     <circle fill="black" cx="75.064"  cy="7.2" stroke="black" id="connector57pad" r="1.884" stroke-width="1.72"/>
     <circle fill="black" cx="67.864"  cy="7.2" stroke="black" id="connector58pad" r="1.884" stroke-width="1.72"/>
     <circle fill="black" cx="60.664"  cy="7.2" stroke="black" id="connector59pad" r="1.884" stroke-width="1.72"/>
     <circle fill="black" cx="53.463"  cy="7.2" stroke="black" id="connector60pad" r="1.884" stroke-width="1.72"/>
     <circle fill="black" cx="180.185"  cy="7.2" stroke="black" id="connector61pad" r="1.884" stroke-width="1.72"/>
     <circle fill="black" cx="172.985"  cy="7.2" stroke="black" id="connector62pad" r="1.884" stroke-width="1.72"/>
     <circle fill="black" cx="165.786"  cy="7.2" stroke="black" id="connector63pad" r="1.884" stroke-width="1.72"/>
     <circle fill="black" cx="158.583"  cy="7.2" stroke="black" id="connector64pad" r="1.884" stroke-width="1.72"/>
     <circle fill="black" cx="151.384"  cy="7.2" stroke="black" id="connector65pad" r="1.884" stroke-width="1.72"/>
     <circle fill="black" cx="144.185"  cy="7.2" stroke="black" id="connector66pad" r="1.884" stroke-width="1.72"/>
     <circle fill="black" cx="136.985"  cy="7.2" stroke="black" id="connector67pad" r="1.884" stroke-width="1.72"/>
     <circle fill="black" cx="129.784"  cy="7.2" stroke="black" id="connector68pad" r="1.884" stroke-width="1.72"/>
     <circle fill="black" cx="86.584"  cy="144" stroke="black" id="connector84pad" r="1.883" stroke-width="1.72"/>
     <circle fill="black" cx="79.384"  cy="144" stroke="black" id="connector91pin" r="1.883" stroke-width="1.72"/>
     <circle fill="black" cx="93.784"  cy="144" stroke="black" id="connector85pad" r="1.883" stroke-width="1.72"/>
     <circle fill="black" cx="100.985"  cy="144" stroke="black" id="connector86pad" r="1.883" stroke-width="1.72"/>
     <circle fill="black" cx="108.185"  cy="144" stroke="black" id="connector87pad" r="1.883" stroke-width="1.72"/>
     <circle fill="black" cx="115.384"  cy="144" stroke="black" id="connector88pad" r="1.883" stroke-width="1.72"/>
     <circle fill="black" cx="122.583"  cy="144" stroke="black" id="connector89pad" r="1.883" stroke-width="1.72"/>
     <circle fill="black" cx="129.784"  cy="144" stroke="black" id="connector90pad" r="1.883" stroke-width="1.72"/>
     <circle fill="black" cx="144.185"  cy="144" stroke="black" id="connector0pad" r="1.883" stroke-width="1.72"/>
    </g>
   </g>
  </g>
 </g>
 <g partID="720531">
  <g transform="translate(163.765,57.0304)">
   <g transform="matrix(0,-1,1,0,0,0)">
    <g  id="copper1">
     <!-- <rect width="55" x="10" y="15.5" fill="none" height="55" stroke="rgb(255, 191, 0)" stroke-width="20" />  -->
     <circle fill="black" cx="2.7"  cy="3.096" stroke="black" r="1.98" id="connector0pin" stroke-width="2.16"/>
     <circle fill="black" cx="31.5"  cy="3.096" stroke="black" r="1.98" id="connector1pin" stroke-width="2.16"/>
    </g>
   </g>
  </g>
 </g>
 <g partID="720331">
  <g transform="translate(158.503,92.5584)">
   <g transform="matrix(0,-1,1,0,0,0)">
    <g  id="copper1">
     <g  id="copper0">
      <rect width="3.96" x="16.02" y="6.228" fill="black"  height="3.96" stroke="black" id="rect10" stroke-width="2.16"/>
      <circle fill="black" cx="3.6"  cy="8.208" stroke="black" id="connector0pin" r="1.98" stroke-width="2.16"/>
      <circle fill="black" cx="10.8"  cy="8.208" stroke="black" id="connector1pin" r="1.98" stroke-width="2.16"/>
      <circle fill="black" cx="18"  cy="8.208" stroke="black" id="connector2pin" r="1.98" stroke-width="2.16"/>
     </g>
    </g>
   </g>
  </g>
 </g>
 <g partID="734141">
  <g transform="translate(106.542,114.318)">
   <g  id="copper1">
    <circle fill="black" cx="2.808"  cy="3.96" connectorname="A" stroke="black" id="connector0pad" r="2.11266" stroke-width="2.11068"/>
    <circle fill="black" cx="31.608"  cy="3.96" connectorname="C" stroke="black" id="connector1pad" r="2.11266" stroke-width="2.11068"/>
    <g  id="copper0">
     <circle fill="black" cx="2.808"  cy="3.96" connectorname="A" stroke="black" id="connector0pad" r="2.11266" stroke-width="2.11068"/>
     <circle fill="black" cx="31.608"  cy="3.96" connectorname="C" stroke="black" id="connector1pad" r="2.11266" stroke-width="2.11068"/>
    </g>
   </g>
  </g>
 </g>
 <g partID="740921">
  <g transform="translate(86.1294,58.0135)">
   <g transform="matrix(-1,0,0,-1,0,0)">
    <g  id="copper1">
     <g  id="copper0">
      <rect width="4.27465" x="12.2627" y="6.74929" fill="black"  height="4.27465" stroke="black" id="square" stroke-width="2.16"/>
      <circle fill="black" cx="14.4"  cy="8.8866" stroke="black" id="connector0pin" r="2.13732" stroke-width="2.16"/>
      <circle fill="black" cx="14.4"  cy="23.0599" stroke="black" id="connector1pin" r="2.13732" stroke-width="2.16"/>
     </g>
    </g>
   </g>
  </g>
 </g>
 <g partID="742482">
  <g transform="translate(86.6682,112.183)">
   <g transform="matrix(-1,0,0,-1,0,0)">
    <g flipped="1" id="copper1">
     <g transform="matrix(-1, 0, 0, 1, 34.56, 0)">
      <g>
       <g>
        <g>
         <rect width="3.42425" x="12.6879" y="7.17449" fill="black" height="3.42425" stroke="black" id="square" stroke-width="2.16"/>
         <circle fill="black" cx="14.4" cy="8.8866" stroke="black" id="connector0pin" r="1.71213" stroke-width="2.16"/>
         <circle fill="black" cx="14.4" cy="23.0599" stroke="black" id="connector1pin" r="1.71213" stroke-width="2.16"/>
        </g>
        <g>
         <g id="copper0">
          <rect width="3.42425" x="12.6879" y="7.17449" fill="black" height="3.42425" stroke="black" id="square" stroke-width="2.16"/>
          <circle fill="black" cx="14.4" cy="8.8866" stroke="black" id="connector0pin" r="1.71213" stroke-width="2.16"/>
          <circle fill="black" cx="14.4" cy="23.0599" stroke="black" id="connector1pin" r="1.71213" stroke-width="2.16"/>
         </g>
        </g>
       </g>
      </g>
     </g>
    </g>
   </g>
  </g>
 </g>
</svg>
